<svg width="30" height="34" viewBox="0 0 30 34" fill="none" xmlns="http://www.w3.org/2000/svg">
<path d="M21.5616 5.57452V6.60378C21.5474 7.30471 22.5133 7.30471 22.4991 6.60378V5.57452C22.4991 4.86718 21.5616 4.89579 21.5616 5.57452ZM19.2819 6.51946L19.7488 7.4122C20.0582 8.02415 20.8915 7.49517 20.5618 6.89603L20.0949 6.00328C19.7988 5.4371 18.9596 5.90321 19.2819 6.51946ZM23.9703 6.00328L23.4998 6.89603C23.1702 7.49507 24.0033 8.02401 24.3127 7.4122L24.7797 6.51946C25.0904 5.92535 24.2757 5.42392 23.9703 6.00328ZM2.34375 7.11593C1.57279 7.11593 0.9375 7.81278 0.9375 8.6584V23.0546V25.1112C0.937528 25.3951 1.14738 25.6253 1.40625 25.6253H3.78662C4.0169 27.3641 5.38554 28.7112 7.03217 28.7112C8.67878 28.7112 10.0443 27.3641 10.274 25.6253H18.2813C18.9151 25.635 18.9151 24.5872 18.2813 24.597H10.275C10.0464 22.8573 8.67976 21.5111 7.03217 21.5111C6.14207 21.5111 5.33349 21.9053 4.7406 22.5404H1.875V8.6584C1.875 8.36468 2.07595 8.14424 2.34375 8.14424H17.3438C17.6116 8.14424 17.8125 8.36468 17.8125 8.6584V20.998C17.8036 21.6933 18.7589 21.6933 18.75 20.998V11.2301H24.375C24.6435 11.2301 24.7836 11.5999 24.863 11.8899L26.2711 17.0334C26.2935 17.115 26.3341 17.1892 26.3892 17.2493L28.1259 19.1543V22.5404H25.2603C24.6683 21.9053 23.8607 21.5111 22.9706 21.5111C22.0805 21.5111 21.271 21.9053 20.6781 22.5404H11.25C10.616 22.5307 10.616 23.5786 11.25 23.5687H20.0089C19.8046 24.0368 19.6866 24.5575 19.6866 25.1092C19.6866 27.0908 21.164 28.7112 22.9706 28.7112C24.6172 28.7112 25.9827 27.3641 26.2125 25.6253H28.5938C28.8526 25.6253 29.0625 25.3951 29.0625 25.1112V23.0566L29.0634 18.9424C29.0634 18.8056 29.0137 18.6743 28.9252 18.5778L27.1326 16.6116L25.763 11.5947C25.5344 10.7575 25.0822 10.2018 24.375 10.2018H23.4375V9.6847C23.4375 8.83906 22.8031 8.14424 22.0322 8.14424C21.2612 8.14424 20.6241 8.83908 20.6241 9.6847V10.2018H18.75V8.6584C18.75 7.81278 18.1147 7.11593 17.3438 7.11593H2.34375ZM22.0322 9.17256C22.3 9.17256 22.4991 9.39096 22.4991 9.6847V10.2018H21.5616V9.6847C21.5616 9.39096 21.7644 9.17256 22.0322 9.17256ZM8.90808 11.7423C8.64742 11.7406 8.43559 11.9725 8.43659 12.2584V13.7989H7.03217C6.7715 13.7978 6.56008 14.0301 6.56159 14.316V16.3686C6.56065 16.6541 6.77186 16.8859 7.03217 16.8848H8.43659V18.4262C8.43565 18.7121 8.64742 18.944 8.90808 18.9424H10.7794C11.0397 18.9434 11.251 18.7117 11.25 18.4262V16.8848H12.6553C12.9156 16.8859 13.1269 16.6541 13.1259 16.3686V14.316C13.1273 14.0301 12.916 13.7978 12.6553 13.7989H11.25V12.2584C11.2509 11.9729 11.0397 11.7412 10.7794 11.7423H8.90808ZM20.1572 12.2544C19.8969 12.2533 19.6856 12.4851 19.6866 12.7706V16.8848C19.6875 17.1687 19.8983 17.398 20.1572 17.3969H24.7595C25.0726 17.3969 25.2977 17.0665 25.209 16.7371L24.0848 12.623C24.0258 12.4041 23.8424 12.254 23.6343 12.2544H20.1572ZM9.375 12.7706H10.3125V14.316C10.3134 14.5984 10.522 14.827 10.7794 14.8282H12.1884V15.8565H10.7794C10.522 15.8576 10.3135 16.0863 10.3125 16.3686V17.9141H9.375V16.3686C9.37397 16.0863 9.16553 15.8576 8.90808 15.8565H7.49909V14.8282H8.90808C9.16553 14.827 9.37397 14.5984 9.375 14.316V12.7706ZM20.6241 13.2827H23.2846L24.1296 16.3686H20.6241V13.2827ZM20.1572 18.4262C19.5181 18.4107 19.5181 19.4701 20.1572 19.4545H21.0947C21.706 19.439 21.706 18.4411 21.0947 18.4262H20.1572ZM7.03217 22.5404C8.33213 22.5404 9.375 23.6833 9.375 25.1092C9.375 26.5351 8.33213 27.6829 7.03217 27.6829C5.7322 27.6829 4.68567 26.5351 4.68567 25.1092C4.68567 23.6833 5.7322 22.5404 7.03217 22.5404ZM22.9706 22.5404C24.2705 22.5404 25.3125 23.6833 25.3125 25.1092C25.3125 26.5351 24.2705 27.6829 22.9706 27.6829C21.6706 27.6829 20.6241 26.5351 20.6241 25.1092C20.6241 23.6833 21.6706 22.5404 22.9706 22.5404ZM1.875 23.5687H4.07043C3.93085 23.8887 3.83351 24.2339 3.78571 24.597H1.875V23.5687ZM7.03217 23.5687C6.26108 23.5687 5.62412 24.2634 5.62409 25.1092C5.62409 25.955 6.26108 26.6546 7.03217 26.6546C7.80327 26.6546 8.43661 25.955 8.43659 25.1092C8.43659 24.2634 7.80325 23.5687 7.03217 23.5687ZM22.9706 23.5687C22.1995 23.5687 21.5616 24.2634 21.5616 25.1092C21.5616 25.955 22.1995 26.6546 22.9706 26.6546C23.7417 26.6546 24.375 25.955 24.375 25.1092C24.375 24.2634 23.7417 23.5687 22.9706 23.5687ZM25.9286 23.5687H28.125V24.597H26.2134C26.1657 24.2339 26.068 23.8888 25.9286 23.5687ZM7.03217 24.597C7.2966 24.597 7.49909 24.8191 7.49909 25.1092C7.4991 25.3992 7.29662 25.6263 7.03217 25.6263C6.76776 25.6263 6.56159 25.3992 6.56159 25.1092C6.5616 24.8191 6.76775 24.597 7.03217 24.597ZM22.9706 24.597C23.235 24.597 23.4375 24.8191 23.4375 25.1092C23.4375 25.3992 23.235 25.6263 22.9706 25.6263C22.7062 25.6263 22.4991 25.3992 22.4991 25.1092C22.4991 24.8191 22.7062 24.597 22.9706 24.597Z" fill="white"/>
</svg>
