<svg width="23" height="26" viewBox="0 0 23 26" fill="none" xmlns="http://www.w3.org/2000/svg">
<path d="M2.39567 23.1324H20.604C20.7311 23.1324 20.853 23.077 20.9428 22.9784C21.0327 22.8799 21.0832 22.7462 21.0832 22.6068V9.993C21.0832 9.85361 21.0327 9.71993 20.9428 9.62136C20.853 9.5228 20.7311 9.46743 20.604 9.46743H18.2082V4.73725C18.2082 4.59786 18.1577 4.46418 18.0678 4.36561C17.978 4.26705 17.8561 4.21168 17.729 4.21168H15.3332V3.6861C15.3332 3.26793 15.1817 2.86688 14.9121 2.57119C14.6426 2.27549 14.2769 2.10938 13.8957 2.10938H9.104C8.72276 2.10938 8.35712 2.27549 8.08754 2.57119C7.81795 2.86688 7.6665 3.26793 7.6665 3.6861V4.21168H5.27067C5.14359 4.21168 5.02171 4.26705 4.93185 4.36561C4.84199 4.46418 4.7915 4.59786 4.7915 4.73725V9.46743H2.39567C2.26859 9.46743 2.14671 9.5228 2.05685 9.62136C1.96699 9.71993 1.9165 9.85361 1.9165 9.993V22.6068C1.9165 22.7462 1.96699 22.8799 2.05685 22.9784C2.14671 23.077 2.26859 23.1324 2.39567 23.1324ZM18.2082 10.5186H20.1248V22.0812H18.2082V10.5186ZM12.9373 22.0812H10.0623V18.4022H12.9373V22.0812ZM8.62484 3.6861C8.62484 3.54671 8.67532 3.41303 8.76518 3.31446C8.85504 3.2159 8.97692 3.16053 9.104 3.16053H13.8957C14.0228 3.16053 14.1446 3.2159 14.2345 3.31446C14.3244 3.41303 14.3748 3.54671 14.3748 3.6861V8.94185C14.3748 9.08124 14.3244 9.21492 14.2345 9.31349C14.1446 9.41205 14.0228 9.46743 13.8957 9.46743H9.104C8.97692 9.46743 8.85504 9.41205 8.76518 9.31349C8.67532 9.21492 8.62484 9.08124 8.62484 8.94185V3.6861ZM5.74984 5.26283H7.6665V8.94185C7.6665 9.36002 7.81795 9.76107 8.08754 10.0568C8.35712 10.3525 8.72276 10.5186 9.104 10.5186H13.8957C14.2769 10.5186 14.6426 10.3525 14.9121 10.0568C15.1817 9.76107 15.3332 9.36002 15.3332 8.94185V5.26283H17.2498V22.0812H13.8957V17.8766C13.8957 17.7372 13.8452 17.6036 13.7553 17.505C13.6655 17.4064 13.5436 17.3511 13.4165 17.3511H9.58317C9.45609 17.3511 9.33421 17.4064 9.24435 17.505C9.15449 17.6036 9.104 17.7372 9.104 17.8766V22.0812H5.74984V5.26283ZM2.87484 10.5186H4.7915V22.0812H2.87484V10.5186Z" fill="white"/>
<path d="M10.0627 6.83881H11.021V7.88996C11.021 8.02935 11.0715 8.16304 11.1613 8.2616C11.2512 8.36016 11.3731 8.41554 11.5002 8.41554C11.6272 8.41554 11.7491 8.36016 11.839 8.2616C11.9288 8.16304 11.9793 8.02935 11.9793 7.88996V6.83881H12.9377C13.0647 6.83881 13.1866 6.78344 13.2765 6.68488C13.3663 6.58631 13.4168 6.45263 13.4168 6.31324C13.4168 6.17385 13.3663 6.04016 13.2765 5.9416C13.1866 5.84304 13.0647 5.78766 12.9377 5.78766H11.9793V4.73651C11.9793 4.59712 11.9288 4.46344 11.839 4.36487C11.7491 4.26631 11.6272 4.21094 11.5002 4.21094C11.3731 4.21094 11.2512 4.26631 11.1613 4.36487C11.0715 4.46344 11.021 4.59712 11.021 4.73651V5.78766H10.0627C9.93558 5.78766 9.8137 5.84304 9.72384 5.9416C9.63398 6.04016 9.5835 6.17385 9.5835 6.31324C9.5835 6.45263 9.63398 6.58631 9.72384 6.68488C9.8137 6.78344 9.93558 6.83881 10.0627 6.83881Z" fill="white"/>
<path d="M8.14567 13.1488H9.104C9.23109 13.1488 9.35297 13.0934 9.44283 12.9949C9.53269 12.8963 9.58317 12.7626 9.58317 12.6232C9.58317 12.4838 9.53269 12.3502 9.44283 12.2516C9.35297 12.153 9.23109 12.0977 9.104 12.0977H8.14567C8.01859 12.0977 7.89671 12.153 7.80685 12.2516C7.71699 12.3502 7.6665 12.4838 7.6665 12.6232C7.6665 12.7626 7.71699 12.8963 7.80685 12.9949C7.89671 13.0934 8.01859 13.1488 8.14567 13.1488Z" fill="white"/>
<path d="M9.58317 15.2482C9.58317 15.1088 9.53269 14.9752 9.44283 14.8766C9.35297 14.778 9.23109 14.7227 9.104 14.7227H8.14567C8.01859 14.7227 7.89671 14.778 7.80685 14.8766C7.71699 14.9752 7.6665 15.1088 7.6665 15.2482C7.6665 15.3876 7.71699 15.5213 7.80685 15.6199C7.89671 15.7184 8.01859 15.7738 8.14567 15.7738H9.104C9.23109 15.7738 9.35297 15.7184 9.44283 15.6199C9.53269 15.5213 9.58317 15.3876 9.58317 15.2482Z" fill="white"/>
<path d="M11.0207 13.1488H11.979C12.1061 13.1488 12.228 13.0934 12.3178 12.9949C12.4077 12.8963 12.4582 12.7626 12.4582 12.6232C12.4582 12.4838 12.4077 12.3502 12.3178 12.2516C12.228 12.153 12.1061 12.0977 11.979 12.0977H11.0207C10.8936 12.0977 10.7717 12.153 10.6818 12.2516C10.592 12.3502 10.5415 12.4838 10.5415 12.6232C10.5415 12.7626 10.592 12.8963 10.6818 12.9949C10.7717 13.0934 10.8936 13.1488 11.0207 13.1488Z" fill="white"/>
<path d="M11.0207 15.7738H11.979C12.1061 15.7738 12.228 15.7184 12.3178 15.6199C12.4077 15.5213 12.4582 15.3876 12.4582 15.2482C12.4582 15.1088 12.4077 14.9752 12.3178 14.8766C12.228 14.778 12.1061 14.7227 11.979 14.7227H11.0207C10.8936 14.7227 10.7717 14.778 10.6818 14.8766C10.592 14.9752 10.5415 15.1088 10.5415 15.2482C10.5415 15.3876 10.592 15.5213 10.6818 15.6199C10.7717 15.7184 10.8936 15.7738 11.0207 15.7738Z" fill="white"/>
<path d="M13.8957 13.1488H14.854C14.9811 13.1488 15.103 13.0934 15.1928 12.9949C15.2827 12.8963 15.3332 12.7626 15.3332 12.6232C15.3332 12.4838 15.2827 12.3502 15.1928 12.2516C15.103 12.153 14.9811 12.0977 14.854 12.0977H13.8957C13.7686 12.0977 13.6467 12.153 13.5568 12.2516C13.467 12.3502 13.4165 12.4838 13.4165 12.6232C13.4165 12.7626 13.467 12.8963 13.5568 12.9949C13.6467 13.0934 13.7686 13.1488 13.8957 13.1488Z" fill="white"/>
<path d="M13.8957 15.7738H14.854C14.9811 15.7738 15.103 15.7184 15.1928 15.6199C15.2827 15.5213 15.3332 15.3876 15.3332 15.2482C15.3332 15.1088 15.2827 14.9752 15.1928 14.8766C15.103 14.778 14.9811 14.7227 14.854 14.7227H13.8957C13.7686 14.7227 13.6467 14.778 13.5568 14.8766C13.467 14.9752 13.4165 15.1088 13.4165 15.2482C13.4165 15.3876 13.467 15.5213 13.5568 15.6199C13.6467 15.7184 13.7686 15.7738 13.8957 15.7738Z" fill="white"/>
</svg>
