<svg width="19" height="24" viewBox="0 0 19 24" fill="none" xmlns="http://www.w3.org/2000/svg">
<path d="M18.6093 18.8575C18.3879 18.5443 18.0702 18.2479 17.665 17.9766C16.9244 17.4807 15.8676 17.0557 14.6089 16.7477C14.3393 16.6817 14.0721 16.8679 14.012 17.1635C13.9518 17.4591 14.1216 17.7522 14.3911 17.8182C15.544 18.1004 16.4959 18.4788 17.144 18.9128C17.696 19.2824 18 19.6754 18 20.0194C18 20.3528 17.719 20.6657 17.4832 20.8695C17.0812 21.217 16.4666 21.5477 15.7058 21.8259C14.0556 22.4292 11.8517 22.7615 9.5 22.7615C7.14834 22.7615 4.94439 22.4292 3.29415 21.8259C2.53342 21.5477 1.91881 21.217 1.51674 20.8695C1.28101 20.6657 1 20.3528 1 20.0194C1 19.6754 1.30402 19.2824 1.85605 18.9128C2.50411 18.4788 3.45605 18.1003 4.60893 17.8182C4.87845 17.7522 5.04818 17.4591 4.98805 17.1635C4.92791 16.8679 4.66067 16.6817 4.39116 16.7477C3.13243 17.0557 2.07562 17.4807 1.335 17.9766C0.929807 18.2479 0.612102 18.5443 0.390692 18.8574C0.131449 19.2242 0 19.6151 0 20.0194C0 20.3454 0.0863719 20.6651 0.256737 20.9695C0.405923 21.236 0.621596 21.4922 0.897782 21.7309C1.39658 22.1621 2.09644 22.5441 2.97793 22.8664C4.72743 23.5061 7.04369 23.8584 9.5 23.8584C11.9563 23.8584 14.2726 23.5061 16.0221 22.8665C16.9036 22.5442 17.6034 22.1621 18.1022 21.731C18.3784 21.4922 18.5941 21.236 18.7433 20.9695C18.9136 20.6651 19 20.3454 19 20.0194C19 19.6151 18.8685 19.2242 18.6093 18.8575Z" fill="white"/>
<path d="M6.09151 16.3632C7.59886 18.7054 9.08396 20.3423 9.14645 20.4108C9.24022 20.5137 9.36739 20.5715 9.5 20.5715C9.63261 20.5715 9.75978 20.5137 9.85354 20.4108C9.91603 20.3423 11.4011 18.7054 12.9085 16.3632C13.7983 14.9806 14.5085 13.6402 15.0194 12.3793C15.6701 10.7735 16 9.28582 16 7.95766C16 6.99542 15.8281 6.06168 15.489 5.18236C15.1616 4.33331 14.693 3.57091 14.0962 2.91632C13.4994 2.26173 12.8043 1.74774 12.0302 1.38862C11.2286 1.0167 10.3773 0.828125 9.5 0.828125C8.62272 0.828125 7.77143 1.01671 6.96976 1.38862C6.19568 1.74774 5.5006 2.26174 4.90381 2.91632C4.30701 3.57091 3.83842 4.33331 3.51101 5.18236C3.17192 6.06167 3 6.99542 3 7.95766C3 9.28582 3.32992 10.7735 3.98059 12.3793C4.49153 13.6403 5.20176 14.9806 6.09151 16.3632ZM9.5 1.92498C12.5327 1.92498 15 4.63123 15 7.95766C15 10.0826 13.9974 12.7656 12.1006 15.7165C11.0697 17.3204 10.0275 18.6067 9.49991 19.2288C8.9743 18.6093 7.93805 17.3305 6.90849 15.7307C5.00573 12.774 4 10.0862 4 7.95766C4 4.63123 6.46729 1.92498 9.5 1.92498Z" fill="white"/>
<path d="M8.13749 11.4932C8.5693 11.6936 9.02772 11.7952 9.49999 11.7952C9.97227 11.7952 10.4307 11.6936 10.8625 11.4932C11.2793 11.2999 11.6536 11.0231 11.9749 10.6707C12.2961 10.3184 12.5484 9.90786 12.7247 9.45065C12.9074 8.97702 13 8.4742 13 7.95618C13 7.43817 12.9074 6.93535 12.7247 6.46172C12.5484 6.0045 12.2961 5.59401 11.9749 5.24162C11.6536 4.88922 11.2793 4.6125 10.8625 4.41912C10.4307 4.21877 9.97227 4.11719 9.49999 4.11719C9.02772 4.11719 8.5693 4.21877 8.13749 4.4191C7.72065 4.61248 7.3464 4.88921 7.02513 5.24159C6.70385 5.59399 6.45156 6.00448 6.27525 6.46169C6.09261 6.93534 6 7.43815 6 7.95616C6 8.47418 6.09261 8.97699 6.27525 9.45063C6.45156 9.90784 6.70386 10.3183 7.02513 10.6707C7.3464 11.0231 7.72064 11.2999 8.13749 11.4932ZM9.49999 5.21404C10.8785 5.21404 12 6.44416 12 7.95617C12 9.46818 10.8785 10.6983 9.49999 10.6983C8.12149 10.6983 6.99999 9.46818 6.99999 7.95617C6.99999 6.44415 8.12149 5.21404 9.49999 5.21404Z" fill="white"/>
</svg>
